<svg width="83" height="6" viewBox="0 0 83 6" fill="none" xmlns="http://www.w3.org/2000/svg">
<path d="M80.3965 2.57261H79.1418C78.863 2.57261 78.6887 2.40303 78.6887 2.16562C78.6887 1.92821 78.8979 1.79255 79.1418 1.79255H81.4072L81.93 0.67334H79.1418C77.9917 0.67334 77.3295 1.35165 77.3295 2.23345C77.3295 3.18309 77.9569 3.72574 78.9676 3.72574H80.2222C80.501 3.72574 80.6753 3.89532 80.6753 4.13272C80.6753 4.37013 80.501 4.53971 80.2222 4.53971H77.5038V5.65892H80.2222C81.3723 5.65892 82.0345 5.01453 82.0345 4.06489C82.0345 3.11526 81.442 2.57261 80.3965 2.57261ZM75.4127 2.57261H74.158C73.8792 2.57261 73.7049 2.40303 73.7049 2.16562C73.7049 1.92821 73.914 1.79255 74.158 1.79255H76.4234L76.9462 0.67334H74.158C73.0079 0.67334 72.3457 1.35165 72.3457 2.23345C72.3457 3.18309 72.973 3.72574 73.9837 3.72574H75.2384C75.5172 3.72574 75.6915 3.89532 75.6915 4.13272C75.6915 4.37013 75.5172 4.53971 75.2384 4.53971H72.52V5.65892H75.2384C76.3885 5.65892 77.0507 5.01453 77.0507 4.06489C77.0507 3.11526 76.4582 2.57261 75.4127 2.57261ZM67.4665 5.62501H71.7532V4.50579H68.8257V3.69182H71.6835V2.57261H68.8257V1.79255H71.7532V0.67334H67.4665V5.62501ZM64.7829 2.7761H63.3539V1.79255H64.7829C65.2011 1.79255 65.4102 2.02996 65.4102 2.30129C65.3753 2.57261 65.1662 2.7761 64.7829 2.7761ZM66.7694 2.26737C66.7694 1.31774 66.0724 0.67334 64.9571 0.67334H62.0296V5.62501H63.3888V3.89532H63.8767L65.4102 5.62501H67.0831L65.4102 3.82748C66.2466 3.65791 66.7694 3.04743 66.7694 2.26737ZM59.4505 2.87785H57.9868V1.79255H59.4505C59.8688 1.79255 60.0779 2.02996 60.0779 2.3352C60.043 2.64044 59.8339 2.87785 59.4505 2.87785ZM59.5899 0.67334H56.6275V5.62501H57.9868V3.99706H59.5551C60.7052 3.99706 61.4022 3.28484 61.4022 2.3352C61.4022 1.35165 60.7052 0.67334 59.5899 0.67334ZM56.3836 0.67334H54.641L53.3166 2.16562L51.9922 0.67334H50.2148L52.4453 3.11526L50.1799 5.62501H51.9225L53.2818 4.06489L54.6758 5.62501H56.4533L54.1531 3.08134L56.3836 0.67334ZM45.6841 5.62501H49.9708V4.50579H47.0433V3.69182H49.9011V2.57261H47.0433V1.79255H49.9708V0.67334H45.6841V5.62501ZM40.9093 3.69182L38.8182 0.67334H37.1105V5.62501H38.4697V2.47086L40.5957 5.62501H42.2337V0.67334H40.9093V3.69182ZM32.998 3.52224L33.695 1.86038L34.3921 3.52224H32.998ZM32.8586 0.67334L30.6281 5.62501H32.1267L32.5449 4.60754H34.9148L35.3679 5.62501H36.9014L34.6012 0.67334H32.8586ZM28.3975 3.18309V3.08134C28.3975 2.3352 28.8158 1.82647 29.6871 1.82647H31.2205V0.67334H29.5825C27.9096 0.67334 27.0383 1.72472 27.0383 3.08134V3.18309C27.0383 4.70929 28.0142 5.59109 29.5128 5.59109H29.9659L30.5235 4.47188H29.7219C28.9203 4.50579 28.3975 4.06489 28.3975 3.18309ZM24.9821 0.67334V5.62501H26.3413V0.67334H24.9821ZM22.2636 2.7761H20.8347V1.79255H22.2636C22.6818 1.79255 22.8909 2.02996 22.8909 2.30129C22.8909 2.57261 22.6818 2.7761 22.2636 2.7761ZM24.2502 2.26737C24.2502 1.31774 23.5531 0.67334 22.4379 0.67334H19.5103V5.62501H20.8695V3.89532H21.3575L22.8909 5.62501H24.5987L22.9258 3.82748C23.7622 3.65791 24.2502 3.04743 24.2502 2.26737ZM14.3174 5.62501H18.6042V4.50579H15.6766V3.69182H18.5345V2.57261H15.6766V1.79255H18.6042V0.67334H14.3174V5.62501ZM9.99576 3.79357L8.84565 0.67334H6.71969V5.62501H8.04406V2.06388L9.36843 5.62501H10.5882L11.9475 2.06388V5.62501H13.2718V0.67334H11.1459L9.99576 3.79357ZM2.60717 3.52224L3.30421 1.86038L4.00124 3.52224H2.60717ZM2.43291 0.67334L0.202393 5.62501H1.70102L2.11924 4.60754H4.48917L4.94224 5.62501H6.47572L4.21035 0.67334H2.43291Z" fill="#006FCF"/>
</svg>
