<svg width="84" height="16" viewBox="0 0 84 16" fill="none" xmlns="http://www.w3.org/2000/svg">
<path d="M37.3821 10.4594V7.47195C37.3821 6.32781 36.6636 5.58094 35.4389 5.58094C34.8183 5.58094 34.1652 5.78753 33.6916 6.42316C33.3324 5.88287 32.8262 5.58094 32.0587 5.58094C31.5525 5.58094 31.0299 5.72397 30.6217 6.28014V5.67629H29.5603V10.4594H30.638V7.82155C30.638 6.97933 31.0952 6.58207 31.8137 6.58207C32.5322 6.58207 32.8915 7.02701 32.8915 7.82155V10.4594H33.9692V7.82155C33.9692 6.97933 34.4754 6.58207 35.1449 6.58207C35.8634 6.58207 36.2227 7.02701 36.2227 7.82155V10.4594H37.3821ZM53.3033 5.67629H51.5561V4.23023H50.4783V5.67629H49.4985V6.62974H50.4783V8.82267C50.4783 9.91913 50.9355 10.5707 52.1603 10.5707C52.6175 10.5707 53.14 10.4276 53.4829 10.2211L53.1727 9.33117C52.8624 9.53775 52.5032 9.58542 52.2582 9.58542C51.752 9.58542 51.5397 9.2835 51.5397 8.79088V6.64563H53.287V5.67629H53.3033ZM62.3988 5.58094C61.7783 5.58094 61.3701 5.88287 61.1251 6.28014V5.67629H60.0474V10.4594H61.1251V7.77388C61.1251 6.97934 61.4844 6.53439 62.1539 6.53439C62.3662 6.53439 62.6111 6.58206 62.8234 6.62974L63.1337 5.62862C62.9214 5.58095 62.6111 5.58094 62.3988 5.58094ZM48.6331 6.07356C48.1269 5.72396 47.4084 5.58094 46.6409 5.58094C45.4162 5.58094 44.5997 6.1848 44.5997 7.12235C44.5997 7.91689 45.2202 8.36183 46.2816 8.52074L46.7879 8.56841C47.3431 8.66376 47.6533 8.82267 47.6533 9.06103C47.6533 9.41063 47.2451 9.66488 46.5266 9.66488C45.8081 9.66488 45.2529 9.41062 44.8936 9.17226L44.3874 9.9668C44.9426 10.3641 45.7101 10.5707 46.4776 10.5707C47.9146 10.5707 48.7311 9.91913 48.7311 9.02925C48.7311 8.18703 48.0616 7.74209 47.0491 7.58318L46.5429 7.53551C46.0857 7.48784 45.7264 7.39249 45.7264 7.09057C45.7264 6.74097 46.0857 6.55028 46.6409 6.55028C47.2614 6.55028 47.8656 6.80454 48.1759 6.94755L48.6331 6.07356ZM77.1934 5.58094C76.5728 5.58094 76.1646 5.88287 75.9196 6.28014V5.67629H74.8419V10.4594H75.9196V7.77388C75.9196 6.97934 76.2789 6.53439 76.9484 6.53439C77.1607 6.53439 77.4056 6.58206 77.6179 6.62974L77.9282 5.62862C77.6996 5.58095 77.3893 5.58094 77.1934 5.58094ZM63.4766 8.05991C63.4766 9.50597 64.5053 10.5548 66.0893 10.5548C66.8078 10.5548 67.314 10.4117 67.8366 10.0145L67.3303 9.17226C66.9221 9.47419 66.5139 9.61721 66.0566 9.61721C65.1912 9.61721 64.5707 9.01336 64.5707 8.0758C64.5707 7.18592 65.1912 6.58206 66.0566 6.53439C66.5139 6.53439 66.9221 6.67741 67.3303 6.97934L67.8366 6.13712C67.3303 5.73985 66.8078 5.59684 66.0893 5.59684C64.5053 5.58095 63.4766 6.62974 63.4766 8.05991ZM73.4049 5.67629H72.3272V6.28014C71.9679 5.8352 71.4617 5.58094 70.7922 5.58094C69.4042 5.58094 68.3428 6.62974 68.3428 8.0758C68.3428 9.52186 69.4205 10.5707 70.7922 10.5707C71.5107 10.5707 72.0169 10.3164 72.3272 9.87146V10.4753H73.4049V5.67629ZM69.4695 8.05991C69.4695 7.2177 70.0247 6.5185 70.9555 6.5185C71.821 6.5185 72.4415 7.17002 72.4415 8.05991C72.4415 8.90212 71.821 9.60132 70.9555 9.60132C70.0247 9.55364 69.4695 8.91801 69.4695 8.05991ZM56.6182 5.58094C55.1812 5.58094 54.1688 6.58207 54.1688 8.0758C54.1688 9.56953 55.1975 10.5707 56.6835 10.5707C57.402 10.5707 58.1205 10.3641 58.6757 9.91913L58.1695 9.17226C57.7613 9.47419 57.2551 9.66488 56.7325 9.66488C56.063 9.66488 55.4098 9.36295 55.2465 8.52074H58.8717V8.12347C58.9207 6.56617 58.0062 5.58094 56.6182 5.58094ZM56.6182 6.47083C57.2877 6.47083 57.7449 6.8681 57.8429 7.61497H55.2792C55.3935 6.97934 55.8507 6.47083 56.6182 6.47083ZM83.2842 3.78529H82.2065V6.28014C81.8473 5.8352 81.341 5.58094 80.6715 5.58094C79.2835 5.58094 78.2221 6.62974 78.2221 8.0758C78.2221 9.52186 79.2999 10.5707 80.6715 10.5707C81.39 10.5707 81.8962 10.3164 82.2065 9.87146V10.4753H83.2842V3.78529ZM79.3325 8.05991C79.3325 7.2177 79.8877 6.5185 80.8185 6.5185C81.684 6.5185 82.3045 7.17002 82.3045 8.05991C82.3045 8.90212 81.684 9.60132 80.8185 9.60132C79.904 9.55364 79.3325 8.91801 79.3325 8.05991ZM43.424 5.67629H42.3462V6.28014C41.987 5.8352 41.4808 5.58094 40.8113 5.58094C39.4233 5.58094 38.3618 6.62974 38.3618 8.0758C38.3618 9.52186 39.4396 10.5707 40.8113 10.5707C41.5298 10.5707 42.036 10.3164 42.3462 9.87146V10.4753H43.424V5.67629ZM39.4396 8.05991C39.4396 7.2177 39.9948 6.5185 40.9256 6.5185C41.791 6.5185 42.4116 7.17002 42.4116 8.05991C42.4116 8.90212 41.791 9.60132 40.9256 9.60132C39.9948 9.55364 39.4396 8.91801 39.4396 8.05991Z" fill="#000008"/>
<path d="M16.0374 2.36634H9.59564V13.6271H16.0374V2.36634Z" fill="#FF5F00"/>
<path d="M10.0003 7.99987C10.0003 5.71343 11.1033 3.68104 12.8002 2.36634C11.5536 1.41365 9.98073 0.835693 8.25771 0.835693C4.19167 0.835693 0.895752 4.03671 0.895752 7.99987C0.895752 11.9567 4.18514 15.1641 8.25771 15.1641C9.9742 15.1641 11.5471 14.5861 12.8002 13.6334C11.1033 12.3378 10.0003 10.2863 10.0003 7.99987Z" fill="#EB001B"/>
<path d="M24.7242 7.99987C24.7242 11.9567 21.4348 15.1641 17.3623 15.1641C15.6458 15.1641 14.0729 14.5861 12.8198 13.6334C14.5362 12.3187 15.6197 10.2927 15.6197 7.99987C15.6197 5.71343 14.5167 3.68104 12.8198 2.36634C14.0663 1.41366 15.6392 0.835696 17.3623 0.835696C21.4348 0.835696 24.7242 4.05577 24.7242 7.99987Z" fill="#F79E1B"/>
</svg>
