<svg width="72" height="19" viewBox="0 0 72 19" fill="none" xmlns="http://www.w3.org/2000/svg">
<path d="M26.3944 9.03463C26.3944 4.50003 20.6037 0.803223 13.46 0.803223C6.31702 0.803223 0.526358 4.50003 0.526358 9.03463C0.526358 9.15219 0.524902 9.47584 0.524902 9.51691C0.524902 14.3277 5.58627 18.2242 13.4585 18.2242C21.3796 18.2242 26.3944 14.3291 26.3944 9.51762C26.3944 9.34978 26.3944 9.25275 26.3944 9.03463Z" fill="#0A0080"/>
<path d="M25.8998 9.03135C25.8998 13.3068 20.3319 16.7727 13.4633 16.7727C6.5947 16.7727 1.02676 13.3068 1.02676 9.03135C1.02676 4.75524 6.5947 1.28931 13.4633 1.28931C20.3319 1.28931 25.8998 4.75524 25.8998 9.03135Z" fill="#00BCFF"/>
<path d="M9.33253 6.58867C9.32598 6.60071 9.20225 6.72608 9.28231 6.82594C9.47882 7.0703 10.0851 7.20983 10.6979 7.07597C11.0626 6.99664 11.5306 6.63471 11.984 6.28411C12.4746 5.90447 12.9622 5.52483 13.4521 5.37326C13.9703 5.21248 14.3029 5.28189 14.5227 5.34634C14.7636 5.41576 15.0468 5.57016 15.4988 5.90022C16.3496 6.5228 19.7711 9.42959 20.3622 9.93176C20.8389 9.72211 22.9547 8.83605 25.8304 8.21913C25.5807 6.72749 24.6476 5.36193 23.2335 4.24426C21.2625 5.05028 18.8533 5.471 16.4981 4.35121C16.4857 4.34625 15.2105 3.75908 13.9536 3.78812C12.0837 3.82991 11.2744 4.61752 10.4177 5.45046L9.33253 6.58867Z" fill="white"/>
<path d="M20.2238 10.2485C20.1838 10.2138 16.2003 6.82185 15.2985 6.16244C14.7759 5.78138 14.4855 5.68364 14.1806 5.6461C14.0219 5.62556 13.8021 5.6546 13.6492 5.69568C13.2293 5.80688 12.6805 6.16386 12.1928 6.53995C11.6885 6.93093 11.2125 7.29923 10.7714 7.39556C10.2073 7.5188 9.51878 7.37289 9.20436 7.16678C9.07698 7.08321 8.98746 6.98688 8.94452 6.88914C8.82807 6.62707 9.04205 6.41742 9.07771 6.38272L10.1767 5.22538C10.3048 5.10143 10.4329 4.97748 10.5647 4.85495C10.2102 4.90028 9.88197 4.98811 9.56318 5.07452C9.16505 5.18359 8.78221 5.287 8.39428 5.287C8.2327 5.287 7.36584 5.14889 7.20135 5.10498C6.2064 4.84008 5.333 4.58226 4.02945 3.98943C2.46678 5.12197 1.42161 6.53712 1.11956 8.09605C1.34446 8.15413 1.70619 8.25895 1.85831 8.29153C5.39414 9.05648 6.49535 9.8448 6.69551 10.0098C6.91167 9.77539 7.22392 9.62735 7.57255 9.62735C7.9634 9.62806 8.3164 9.81859 8.53038 10.1147C8.73272 9.95883 9.01221 9.82638 9.37321 9.82638C9.53698 9.82638 9.70729 9.85613 9.87906 9.91279C10.2779 10.0459 10.4839 10.3045 10.5909 10.5382C10.7248 10.4794 10.8893 10.4362 11.0829 10.4369C11.2736 10.4369 11.4716 10.4787 11.671 10.563C12.3231 10.835 12.4243 11.4583 12.3653 11.9279C12.4119 11.9229 12.4585 11.9208 12.5058 11.9208C13.2788 11.9215 13.9076 12.5327 13.9076 13.2856C13.9076 13.5187 13.8465 13.7375 13.7395 13.9295C13.9498 14.0449 14.4863 14.3048 14.9572 14.2468C15.3335 14.2007 15.4761 14.0754 15.5271 14.0052C15.562 13.9571 15.5991 13.9004 15.5649 13.86L14.567 12.7813C14.567 12.7813 14.4026 12.6298 14.4571 12.5717C14.5132 12.5115 14.6151 12.5979 14.6864 12.656C15.1944 13.0689 15.8146 13.6915 15.8146 13.6915C15.8247 13.6986 15.8662 13.7772 16.0955 13.8175C16.2927 13.8515 16.6421 13.8317 16.8837 13.6384C16.9449 13.5895 17.006 13.5286 17.057 13.4655C17.0533 13.4684 17.0497 13.4733 17.0461 13.4747C17.3008 13.1567 17.0177 12.8352 17.0177 12.8352L15.8524 11.5624C15.8524 11.5624 15.6865 11.4122 15.7425 11.352C15.7935 11.2996 15.9004 11.3789 15.974 11.4377C16.3422 11.738 16.8634 12.2466 17.3634 12.7225C17.4602 12.7927 17.8998 13.0569 18.4806 12.685C18.8336 12.4598 18.9042 12.1835 18.894 11.9746C18.87 11.6984 18.648 11.5015 18.648 11.5015L17.057 9.94466C17.057 9.94466 16.8888 9.80513 16.9485 9.7343C16.9973 9.67481 17.1065 9.76051 17.1778 9.81859C17.6844 10.2315 19.0571 11.4561 19.0571 11.4561C19.0767 11.4696 19.5505 11.7982 20.1364 11.4349C20.3461 11.3046 20.48 11.1084 20.4916 10.8796C20.5113 10.4837 20.2238 10.2485 20.2238 10.2485Z" fill="white"/>
<path d="M12.5079 12.2219C12.2611 12.2191 11.9911 12.3615 11.9562 12.3409C11.9365 12.3282 11.9707 12.2318 11.994 12.1759C12.018 12.1206 12.3427 11.1694 11.5508 10.8387C10.9445 10.5858 10.574 10.8705 10.4466 10.9994C10.4132 11.0334 10.3986 11.0306 10.3942 10.9874C10.3826 10.816 10.3033 10.3528 9.78067 10.197C9.03318 9.97455 8.55208 10.4824 8.42981 10.6658C8.37522 10.2508 8.01567 9.92922 7.57387 9.92852C7.09423 9.92852 6.70557 10.306 6.70557 10.7728C6.70484 11.2388 7.0935 11.6171 7.57315 11.6171C7.80605 11.6178 8.01712 11.5271 8.17288 11.3819C8.17798 11.3862 8.18016 11.394 8.17725 11.4102C8.14086 11.6185 8.0739 12.3778 8.89053 12.6873C9.21805 12.8105 9.49681 12.7184 9.72754 12.5612C9.79596 12.5137 9.8076 12.5336 9.79741 12.5966C9.7683 12.7921 9.80542 13.21 10.4081 13.4473C10.8659 13.6286 11.1374 13.443 11.3149 13.2836C11.3921 13.2149 11.4132 13.2256 11.4168 13.3318C11.4387 13.897 11.9212 14.3454 12.5064 14.3461C13.1098 14.3461 13.5989 13.8715 13.5989 13.2851C13.5996 12.6979 13.1112 12.2283 12.5079 12.2219Z" fill="white"/>
<path d="M12.5051 14.2677C11.9585 14.267 11.5138 13.8534 11.4934 13.3272C11.4926 13.2819 11.4875 13.1615 11.3835 13.1615C11.3398 13.1615 11.3027 13.187 11.2597 13.2245C11.1396 13.3329 10.9868 13.4434 10.7634 13.4434C10.6615 13.4434 10.5516 13.42 10.4358 13.374C9.85793 13.1466 9.84992 12.7607 9.87321 12.6056C9.87976 12.5638 9.88194 12.5206 9.85283 12.4873L9.81717 12.4568H9.7815C9.75239 12.4568 9.72182 12.4682 9.68106 12.4965C9.51366 12.6105 9.35353 12.6658 9.1905 12.6658C9.10098 12.6658 9.00927 12.6481 8.91683 12.6134C8.15697 12.3258 8.21738 11.6275 8.2545 11.4179C8.2596 11.3747 8.24868 11.3421 8.22102 11.3202L8.16716 11.277L8.11694 11.3237C7.96919 11.4625 7.77486 11.539 7.57179 11.539C7.13582 11.5383 6.78136 11.1941 6.78209 10.7706C6.78209 10.3464 7.13727 10.0029 7.57252 10.0029C7.96628 10.0029 8.30108 10.2912 8.3513 10.6736L8.37824 10.8797L8.49469 10.7055C8.50779 10.6849 8.82658 10.2154 9.41322 10.2161C9.52458 10.2161 9.63957 10.2331 9.75603 10.2685C10.2233 10.4073 10.3026 10.8195 10.315 10.9916C10.323 11.0914 10.3965 11.0964 10.4111 11.0964C10.4511 11.0964 10.481 11.0716 10.5021 11.0496C10.5901 10.9604 10.7823 10.8117 11.0829 10.8117C11.2204 10.8117 11.3675 10.8436 11.5181 10.9066C12.2612 11.2168 11.9243 12.1353 11.9206 12.1452C11.8566 12.2975 11.8537 12.3648 11.9141 12.4037L11.9432 12.4172H11.965C11.9985 12.4172 12.04 12.403 12.1084 12.3804C12.2096 12.3464 12.3624 12.2954 12.5051 12.2954H12.5058C13.0648 12.3017 13.5197 12.7444 13.5197 13.2826C13.5189 13.8258 13.064 14.2677 12.5051 14.2677ZM20.3773 9.84004C19.1502 8.79828 16.3146 6.39961 15.5467 5.838C15.1078 5.51719 14.8087 5.34722 14.5459 5.27144C14.428 5.23674 14.2642 5.19708 14.0539 5.19708C13.8588 5.19708 13.6492 5.23108 13.4301 5.29906C12.9338 5.45203 12.4396 5.83446 11.9606 6.20414L11.9359 6.22326C11.4905 6.56816 11.0305 6.92438 10.6818 7.00016C10.5297 7.03344 10.3732 7.05044 10.2175 7.05044C9.82663 7.05044 9.47654 6.94067 9.3448 6.77778C9.32297 6.75016 9.33679 6.70696 9.38774 6.64393L9.39502 6.63544L10.4744 5.50373C11.3194 4.6808 12.1179 3.90462 13.9564 3.86354C13.9862 3.86283 14.0175 3.86213 14.0481 3.86213C15.1922 3.86283 16.3357 4.36141 16.4638 4.41877C17.5366 4.92797 18.6444 5.18646 19.7572 5.18717C20.9174 5.18788 22.1147 4.90814 23.3731 4.34441C23.2326 4.22968 23.0863 4.11779 22.9357 4.00801C21.8301 4.47401 20.7769 4.70984 19.7609 4.70984C18.7222 4.70842 17.6858 4.46622 16.6785 3.98819C16.6253 3.9634 15.3625 3.38409 14.0481 3.38338C14.0139 3.38338 13.9789 3.38409 13.9447 3.3848C12.401 3.4195 11.5312 3.95348 10.946 4.4209C10.3776 4.43435 9.88631 4.56749 9.45034 4.68647C9.06022 4.79128 8.72396 4.88264 8.3957 4.88264C8.26033 4.88264 8.01723 4.8706 7.99539 4.86989C7.61837 4.85856 5.71654 4.40531 4.2041 3.84796C4.0498 3.95419 3.90132 4.06396 3.75648 4.17586C5.33661 4.80616 7.25955 5.2934 7.86657 5.33164C8.03542 5.34297 8.2152 5.36138 8.39498 5.36138C8.79674 5.36138 9.19705 5.25232 9.58499 5.1468C9.81353 5.08377 10.0661 5.01578 10.3325 4.96621C10.2611 5.0342 10.1905 5.10289 10.1192 5.17159L9.0231 6.32595C8.93648 6.41094 8.7487 6.63756 8.87244 6.91588C8.92193 7.02849 9.02164 7.13613 9.16139 7.22749C9.42195 7.39888 9.88995 7.51431 10.3252 7.51502C10.4897 7.51502 10.6462 7.49873 10.7896 7.46757C11.2488 7.36701 11.7314 6.99308 12.2423 6.5979C12.6492 6.28346 13.2271 5.88404 13.6703 5.76647C13.7941 5.7339 13.9462 5.71336 14.0677 5.71336C14.1041 5.71407 14.1391 5.71478 14.1711 5.71973C14.4637 5.75514 14.7461 5.85217 15.2512 6.22114C16.1515 6.87906 20.135 10.2699 20.1743 10.3039C20.1765 10.306 20.4305 10.5185 20.413 10.8733C20.4035 11.0709 20.2907 11.2465 20.0949 11.3683C19.9246 11.4731 19.7492 11.5263 19.5723 11.5263C19.306 11.5263 19.1225 11.4045 19.1102 11.3967C19.0956 11.3846 17.7309 10.1672 17.2287 9.75789C17.1487 9.69344 17.0708 9.63537 16.9922 9.63537C16.9507 9.63537 16.9136 9.65237 16.8881 9.68353C16.8095 9.77843 16.8976 9.90944 17.0024 9.99584L18.5963 11.5546C18.5985 11.5567 18.795 11.7359 18.8161 11.9753C18.8292 12.2338 18.7019 12.4498 18.4377 12.6183C18.2499 12.7387 18.0592 12.8003 17.8729 12.8003C17.6283 12.8003 17.4558 12.6913 17.418 12.6658L17.1894 12.4462C16.7716 12.0461 16.34 11.6325 16.0241 11.3761C15.947 11.3138 15.8648 11.2564 15.7861 11.2564C15.7476 11.2564 15.7126 11.2699 15.6857 11.2975C15.65 11.3365 15.6246 11.4066 15.7148 11.5227C15.7512 11.5702 15.7949 11.6098 15.7949 11.6098L16.9587 12.8818C16.9682 12.8931 17.1981 13.1594 16.9849 13.4242L16.9434 13.4745C16.9092 13.5121 16.8714 13.5468 16.8357 13.5765C16.637 13.7351 16.3721 13.7521 16.2672 13.7521C16.2112 13.7521 16.1566 13.7472 16.11 13.7387C15.995 13.7189 15.9179 13.6877 15.88 13.6445L15.8662 13.6303C15.8029 13.5666 15.2163 12.9837 14.7308 12.59C14.6675 12.5376 14.5874 12.4717 14.5052 12.4717C14.4644 12.4717 14.428 12.4873 14.3996 12.5177C14.3035 12.6197 14.4477 12.7727 14.5088 12.8294L15.5016 13.8938C15.5001 13.903 15.4877 13.9249 15.4637 13.9589C15.4281 14.0064 15.308 14.1239 14.9477 14.1678C14.9047 14.1735 14.8603 14.1756 14.8159 14.1756C14.4447 14.1756 14.0488 14 13.845 13.8952C13.9382 13.704 13.9862 13.4936 13.9862 13.2833C13.9862 12.488 13.3232 11.8414 12.5065 11.8414C12.4891 11.8414 12.4709 11.8414 12.4534 11.8421C12.4796 11.4795 12.4272 10.7926 11.7023 10.4902C11.4934 10.4024 11.2852 10.3577 11.0836 10.3577C10.9249 10.3577 10.7728 10.3839 10.6302 10.4371C10.4795 10.1531 10.2306 9.94627 9.90523 9.83862C9.72546 9.77843 9.54641 9.74727 9.37391 9.74727C9.07186 9.74727 8.79456 9.83367 8.54637 10.0051C8.30909 9.71823 7.95027 9.54755 7.57252 9.54755C7.24208 9.54755 6.92402 9.67645 6.68893 9.90378C6.3796 9.67432 5.15465 8.91655 1.87502 8.19206C1.71635 8.15736 1.35244 8.05538 1.12899 7.99235C1.09187 8.16444 1.06349 8.33936 1.04456 8.51571C1.04456 8.51571 1.64939 8.65664 1.76876 8.68284C5.11899 9.40662 6.2253 10.1594 6.41308 10.3018C6.34903 10.4498 6.31628 10.6091 6.31628 10.7706C6.31555 11.4434 6.87889 11.9923 7.57107 11.993C7.64894 11.993 7.72609 11.9859 7.80106 11.9724C7.90587 12.4682 8.23922 12.8442 8.74798 13.0369C8.89718 13.0921 9.04784 13.1211 9.19559 13.1211C9.29094 13.1211 9.38774 13.1098 9.48163 13.0864C9.57553 13.3187 9.78732 13.6084 10.2604 13.7953C10.4264 13.8605 10.5923 13.8945 10.7532 13.8945C10.8849 13.8945 11.0137 13.8718 11.1367 13.8279C11.3631 14.3654 11.9031 14.721 12.5043 14.721C12.9032 14.7217 13.286 14.5637 13.5655 14.284C13.8043 14.4136 14.3086 14.6473 14.8181 14.648C14.8844 14.648 14.9462 14.6431 15.0081 14.636C15.5147 14.5744 15.7498 14.381 15.8582 14.2316C15.8779 14.2054 15.8953 14.1778 15.9106 14.1487C16.03 14.1827 16.161 14.2096 16.3116 14.2103C16.5882 14.2103 16.8539 14.1183 17.1217 13.9278C17.3852 13.7436 17.5723 13.4781 17.5992 13.2521C17.5999 13.2486 17.6006 13.2458 17.6014 13.2422C17.6894 13.2599 17.7811 13.2691 17.8721 13.2691C18.1567 13.2691 18.4362 13.1827 18.704 13.0121C19.2201 12.6835 19.3096 12.2536 19.3016 11.9717C19.3911 11.9901 19.4836 11.9993 19.5753 11.9993C19.8424 11.9993 20.1051 11.9214 20.3548 11.7663C20.675 11.5673 20.8672 11.2628 20.8963 10.908C20.9167 10.6672 20.8555 10.4243 20.7245 10.2154C21.5892 9.85279 23.5653 9.15167 25.8921 8.64106C25.8783 8.46542 25.8521 8.29192 25.8201 8.11911C23.0048 8.72746 20.9036 9.612 20.3773 9.84004Z" fill="#0A0080"/>
<path d="M69.3108 7.05576C69.0845 7.34828 68.7606 7.49419 68.337 7.49419C67.9141 7.49419 67.5881 7.34828 67.3602 7.05576C67.1317 6.76324 67.0182 6.34677 67.0182 5.80777C67.0182 5.26877 67.1317 4.85372 67.3602 4.56261C67.5881 4.27222 67.9141 4.12631 68.337 4.12631C68.7606 4.12631 69.0845 4.27222 69.3108 4.56261C69.5372 4.85372 69.6515 5.26877 69.6515 5.80777C69.6515 6.34677 69.5372 6.76324 69.3108 7.05576ZM70.4681 3.78988C70.0008 3.22113 69.2926 2.9364 68.3414 2.9364C67.3915 2.9364 66.6826 3.22113 66.2161 3.78988C65.7488 4.35934 65.5152 5.03149 65.5152 5.80777C65.5152 6.59751 65.7488 7.2725 66.2161 7.83417C66.6826 8.39371 67.3915 8.6749 68.3414 8.6749C69.2926 8.6749 70.0008 8.39371 70.4681 7.83417C70.9354 7.2725 71.1683 6.59751 71.1683 5.80777C71.1683 5.03149 70.9354 4.35934 70.4681 3.78988Z" fill="#0A0080"/>
<path d="M57.8011 6.38997C57.7916 6.86239 57.6526 7.1882 57.3855 7.36598C57.1184 7.54447 56.8265 7.63442 56.5099 7.63442C56.3097 7.63442 56.1402 7.57988 56.0004 7.47293C55.8607 7.36527 55.7915 7.19103 55.7915 6.94951C55.7915 6.67966 55.9051 6.47992 56.1336 6.3503C56.2697 6.27523 56.491 6.21006 56.801 6.15836L57.1315 6.09886C57.296 6.06841 57.4255 6.03583 57.5201 6.00112C57.6162 5.96712 57.7086 5.92179 57.8011 5.86513V6.38997ZM58.5369 3.31319C58.0631 3.08017 57.5216 2.96188 56.9117 2.96188C55.9742 2.96188 55.3126 3.19987 54.9276 3.67512C54.6852 3.97969 54.5498 4.36712 54.5178 4.83954H55.9182C55.9531 4.6313 56.0215 4.46628 56.1249 4.34445C56.2697 4.17942 56.515 4.09655 56.8622 4.09655C57.1722 4.09655 57.4073 4.13763 57.5674 4.22333C57.7268 4.30691 57.8069 4.4599 57.8069 4.68088C57.8069 4.86291 57.7035 4.99607 57.4939 5.08248C57.3775 5.13206 57.1846 5.17314 56.9138 5.20643L56.4175 5.26593C55.8541 5.33463 55.4254 5.45079 55.1357 5.61298C54.6051 5.91046 54.3409 6.38997 54.3409 7.05434C54.3409 7.56572 54.5047 7.96165 54.8344 8.24071C55.1634 8.51977 55.5819 8.63664 56.087 8.66001C59.2538 8.79742 59.2182 7.03592 59.2473 6.66903V4.64122C59.2473 3.99102 59.01 3.54834 58.5369 3.31319Z" fill="#0A0080"/>
<path d="M51.3134 4.17034C51.6758 4.17034 51.9415 4.27942 52.1133 4.49686C52.2312 4.65764 52.3047 4.83967 52.3331 5.04082H53.8957C53.8099 4.27375 53.534 3.73829 53.0682 3.43444C52.6009 3.13271 52.0034 2.98043 51.2719 2.98043C50.4109 2.98043 49.7354 3.23753 49.2471 3.75104C48.7579 4.26525 48.5134 4.98345 48.5134 5.90705C48.5134 6.72441 48.7347 7.3909 49.1772 7.90511C49.6197 8.41791 50.3104 8.67501 51.2493 8.67501C52.189 8.67501 52.8979 8.36762 53.3761 7.75141C53.6752 7.36965 53.8433 6.96451 53.879 6.53671H52.3222C52.2901 6.81932 52.1992 7.05021 52.0485 7.22799C51.8986 7.40506 51.6453 7.49431 51.2872 7.49431C50.7835 7.49431 50.44 7.2712 50.2573 6.82215C50.1576 6.58346 50.1074 6.26686 50.1074 5.87234C50.1074 5.45871 50.1576 5.12723 50.2573 4.87721C50.4473 4.40691 50.7995 4.17034 51.3134 4.17034Z" fill="#0A0080"/>
<path d="M48.0956 2.98043C44.8866 2.98043 45.0765 5.74556 45.0765 5.74556V8.5539H46.5322V5.9198C46.5322 5.48845 46.5883 5.16831 46.6996 4.96078C46.899 4.59248 47.2899 4.40762 47.8722 4.40762C47.9158 4.40762 47.9733 4.40974 48.0447 4.41328C48.1153 4.41612 48.1961 4.42249 48.2885 4.43311V2.99105C48.2237 2.9868 48.1822 2.98539 48.164 2.98326C48.1451 2.98184 48.1225 2.98043 48.0956 2.98043Z" fill="#0A0080"/>
<path d="M40.7886 4.44799C40.9939 4.24329 41.2814 4.14059 41.6519 4.14059C41.9939 4.14059 42.2793 4.23692 42.51 4.43099C42.74 4.62364 42.8688 4.90766 42.895 5.28093H40.4036C40.4553 4.93033 40.5841 4.65339 40.7886 4.44799ZM42.7458 7.08634C42.6847 7.17133 42.6192 7.24428 42.5464 7.30095C42.3411 7.46598 42.0616 7.51556 41.7326 7.51556C41.4211 7.51556 41.178 7.46952 40.9575 7.33424C40.5943 7.1175 40.3898 6.7499 40.368 6.20948H44.3973C44.4031 5.74485 44.3871 5.38929 44.3485 5.1414C44.2815 4.71997 44.1345 4.34812 43.9082 4.02868C43.657 3.66604 43.3375 3.40044 42.9518 3.23187C42.5668 3.064 42.1337 2.98043 41.6519 2.98043C40.8403 2.98043 40.1816 3.22903 39.6736 3.72625C39.1656 4.22417 38.9108 4.93883 38.9108 5.87093C38.9108 6.86677 39.1925 7.58497 39.7558 8.02623C40.3185 8.46749 40.9684 8.68918 41.7043 8.68918C42.5959 8.68918 43.2895 8.42711 43.7851 7.90369C44.0523 7.62817 44.2197 7.35548 44.2903 7.08634H42.7458Z" fill="#0A0080"/>
<path d="M38.3283 8.55261H36.9978V5.2931C36.9978 4.99562 36.8974 4.28734 36.0196 4.28734C35.4344 4.28734 35.0116 4.69814 35.0116 5.2931V8.55261H33.6803V5.2931C33.6803 4.99562 33.5894 4.28734 32.7123 4.28734C32.117 4.28734 31.7035 4.69814 31.7035 5.2931V8.55261H30.3731V5.32426C30.3731 3.97853 31.2901 2.96073 32.7123 2.96073C33.4183 2.96073 33.9926 3.24971 34.366 3.71222C34.759 3.24971 35.3434 2.96073 36.0196 2.96073C37.4716 2.96073 38.3283 3.93745 38.3283 5.32426V8.55261Z" fill="#0A0080"/>
<path d="M63.3351 7.06571C63.1226 7.36248 62.8103 7.51051 62.4013 7.51051C61.9915 7.51051 61.6866 7.36106 61.4857 7.06358C61.2848 6.76469 61.1844 6.33122 61.1844 5.834C61.1844 5.37291 61.2826 4.9869 61.4806 4.67596C61.6778 4.36503 61.9879 4.20921 62.4115 4.20921C62.6888 4.20921 62.9326 4.2942 63.143 4.4656C63.4843 4.74892 63.6554 5.25675 63.6554 5.91546C63.6554 6.38575 63.5484 6.76964 63.3351 7.06571ZM65.0819 1.27692C65.0819 1.27692 63.6146 1.12464 63.6146 2.27135L63.6139 3.78919C63.4516 3.53563 63.2405 3.3366 62.9799 3.19424C62.7201 3.05117 62.4224 2.97892 62.0861 2.97892C61.359 2.97892 60.779 3.2424 60.3437 3.76936C59.9085 4.29632 59.6923 5.0556 59.6923 5.97424C59.6923 6.77106 59.9128 7.4241 60.3539 7.93335C60.7957 8.44119 61.6618 8.6643 62.4304 8.6643C65.1118 8.6643 65.0805 6.42613 65.0805 6.42613L65.0819 1.27692Z" fill="#0A0080"/>
<path d="M34.2692 13.7119C34.2692 13.1778 34.1622 12.767 33.9475 12.4787C33.7335 12.1919 33.4271 12.0467 33.0267 12.0467C32.6424 12.0467 32.3419 12.1919 32.1271 12.4787C31.9284 12.7394 31.8287 13.1516 31.8287 13.7119C31.8287 14.2346 31.935 14.6234 32.1497 14.8841C32.363 15.1723 32.6708 15.3161 33.0697 15.3161C33.4409 15.3161 33.7335 15.1723 33.9475 14.8841C34.1622 14.5965 34.2692 14.207 34.2692 13.7119ZM31.8287 17.5465C31.8287 17.7377 31.7574 17.9028 31.6133 18.0395C31.4714 18.1769 31.3003 18.2456 31.1002 18.2456H30.3731V13.3209C30.3731 12.3633 30.7042 11.7641 31.2501 11.3582C31.6111 11.0905 32.1482 10.8348 33.1556 10.8348C33.8354 10.8348 34.6316 11.0919 35.0618 11.6019C35.5443 12.1756 35.7452 12.8152 35.7452 13.6502C35.7452 14.5143 35.5312 15.2113 35.104 15.7475C34.676 16.2688 34.1258 16.528 33.4547 16.528C33.0981 16.528 32.7844 16.4664 32.5136 16.3438C32.2269 16.2064 31.9998 15.9939 31.8287 15.7057V17.5465Z" fill="#0A0080"/>
<path d="M42.9973 13.7131C42.9973 14.6579 43.2782 15.1814 43.8387 15.2848C44.3984 15.3861 44.8125 15.2593 45.0789 14.9037C45.2056 14.7543 45.2958 14.517 45.3526 14.1961C45.4079 13.8746 45.4123 13.5559 45.3628 13.2414C45.3147 12.9255 45.1983 12.645 45.0156 12.3985C44.8344 12.1527 44.5672 12.0288 44.2172 12.0288C43.7404 12.0288 43.4187 12.2009 43.2499 12.5416C43.081 12.8844 42.9973 13.2747 42.9973 13.7131ZM45.3948 16.0745V15.7267C45.143 16.1106 44.8016 16.3486 44.3744 16.4449C43.9471 16.5406 43.5228 16.5066 43.1036 16.3415C42.6822 16.1779 42.3211 15.8734 42.0198 15.4286C41.7185 14.9823 41.5686 14.3973 41.5686 13.6713C41.5686 12.8235 41.768 12.135 42.1668 11.6081C42.5664 11.0811 43.2084 10.8403 44.0912 10.8169C44.961 10.7943 45.4668 10.9862 45.9625 11.351C46.504 11.7512 46.8243 12.3645 46.8243 13.3228V16.2197C46.8264 17.1412 46.1656 18.8496 44.0912 18.7051C42.8059 18.6144 42.0926 18.1009 41.6945 16.9386H43.2295C43.3416 17.1298 43.5126 17.2765 43.7448 17.3785C43.9748 17.4826 44.2077 17.5095 44.437 17.4613C44.6684 17.4132 44.8788 17.2793 45.0694 17.0611C45.258 16.8423 45.3664 16.5129 45.3948 16.0745Z" fill="#0A0080"/>
<path d="M39.5845 14.2849C39.5751 14.7573 39.436 15.0824 39.1697 15.2609C38.9025 15.4387 38.6107 15.528 38.2941 15.528C38.0932 15.528 37.9236 15.4741 37.7846 15.3672C37.6448 15.2602 37.575 15.0853 37.575 14.8438C37.575 14.5739 37.6892 14.3742 37.9178 14.2453C38.0539 14.1695 38.2751 14.1043 38.5845 14.0526L38.9149 13.9931C39.0801 13.9627 39.2097 13.9301 39.3036 13.8954C39.3997 13.8614 39.4921 13.8167 39.5845 13.7601V14.2849ZM40.3204 11.2081C39.8465 10.9751 39.305 10.8568 38.6958 10.8568C37.7577 10.8568 37.0968 11.0948 36.711 11.5701C36.4694 11.8739 36.3333 12.2614 36.302 12.7345H37.7031C37.7373 12.5255 37.8057 12.3605 37.909 12.2387C38.0539 12.0737 38.2992 11.9915 38.6456 11.9915C38.9571 11.9915 39.1915 12.0326 39.3509 12.1176C39.5103 12.2019 39.5911 12.3549 39.5911 12.5758C39.5911 12.7572 39.487 12.891 39.2781 12.9774C39.1624 13.027 38.9688 13.0681 38.698 13.1014L38.2016 13.1602C37.6383 13.2296 37.2096 13.3457 36.9199 13.5072C36.3893 13.8047 36.1244 14.2849 36.1244 14.9486C36.1244 15.46 36.2889 15.8559 36.6186 16.135C36.9476 16.4133 37.3661 16.5316 37.8712 16.5543C41.0366 16.6917 41.0016 14.9295 41.0307 14.5633V12.5355C41.0307 11.8853 40.7942 11.4433 40.3204 11.2081Z" fill="#0A0080"/>
<path d="M51.1736 14.9192C50.9473 15.2124 50.6227 15.3583 50.1998 15.3583C49.7762 15.3583 49.4501 15.2124 49.223 14.9192C48.9938 14.6274 48.8802 14.2116 48.8802 13.6726C48.8802 13.1336 48.9938 12.7186 49.223 12.4274C49.4501 12.1363 49.7762 11.9919 50.1998 11.9919C50.6227 11.9919 50.9473 12.1363 51.1736 12.4274C51.4 12.7186 51.5135 13.1336 51.5135 13.6726C51.5135 14.2116 51.4 14.6274 51.1736 14.9192ZM52.3309 11.6547C51.8636 11.0853 51.1547 10.8012 50.2034 10.8012C49.2543 10.8012 48.5447 11.0853 48.0782 11.6547C47.6109 12.2235 47.3773 12.8956 47.3773 13.6726C47.3773 14.4623 47.6109 15.1366 48.0782 15.6983C48.5447 16.2578 49.2543 16.539 50.2034 16.539C51.1547 16.539 51.8636 16.2578 52.3309 15.6983C52.7974 15.1366 53.0296 14.4623 53.0296 13.6726C53.0296 12.8956 52.7974 12.2235 52.3309 11.6547Z" fill="#0A0080"/>
</svg>
