<svg width="46" height="15" viewBox="0 0 46 15" fill="none" xmlns="http://www.w3.org/2000/svg">
<path d="M22.9167 0.891366L19.9407 14.7577H16.3421L19.3185 0.891366H22.9167ZM38.0575 9.84487L39.9521 4.63761L41.0423 9.84487H38.0575ZM42.0726 14.7577H45.4013L42.4966 0.891366H39.4242C38.7338 0.891366 38.1513 1.29162 37.8919 1.90868L32.4929 14.7577H36.272L37.0223 12.687H41.6394L42.0726 14.7577ZM32.6805 10.2302C32.6959 6.57042 27.6029 6.36898 27.6381 4.73416C27.6487 4.23604 28.1246 3.70763 29.1642 3.57202C29.6807 3.50487 31.1007 3.45352 32.7131 4.19303L33.3445 1.25256C32.4784 0.939204 31.364 0.637695 29.9779 0.637695C26.4211 0.637695 23.9175 2.52267 23.8964 5.22176C23.8739 7.21776 25.6836 8.33163 27.0472 8.99521C28.4491 9.67503 28.9203 10.1104 28.9141 10.7182C28.9049 11.6491 27.7957 12.059 26.761 12.0752C24.9514 12.1038 23.9012 11.5885 23.0642 11.1997L22.4121 14.238C23.2527 14.6229 24.8047 14.9573 26.4149 14.9745C30.195 14.9745 32.6681 13.1127 32.6805 10.2302ZM17.7744 0.891366L11.9439 14.7577H8.13921L5.27019 3.69139C5.09583 3.00982 4.94436 2.76054 4.41468 2.47307C3.55036 2.00567 2.12157 1.56636 0.864502 1.29425L0.950361 0.891366H7.07368C7.8539 0.891366 8.55618 1.40924 8.73318 2.30498L10.2487 10.3294L13.9935 0.891366H17.7744Z" fill="#1434CB"/>
</svg>
